inDegrees=no
num_controls=7
num_derivatives=13
num_iterations=199
num_multipliers=7
num_parameters=0
num_slacks=7
num_states=26
objective=5.477559
objective_accelerations=0.535731
objective_balance=0.117686
objective_effort=0.371010
objective_height=4.391663
objective_ligament=0.061470
solver_duration=2245.295386
status=Solve_Succeeded
success=true
DataType=double
version=3
OpenSimVersion=4.4-2022-07-23-0e9fedc
endheader
time	/jointset/ground_pelvis/pelvis_tilt/value	/jointset/ground_pelvis/pelvis_tx/value	/jointset/ground_pelvis/pelvis_ty/value	/jointset/hip_l/hip_flexion_l/value	/jointset/hip_l/hip_adduction_l/value	/jointset/hip_l/hip_rotation_l/value	/jointset/back/lumbar_extension/value	/jointset/patellofemoral_l/patellar_flexion_l/value	/jointset/knee_l/knee_flexion_l/value	/jointset/knee_l/knee_adduction_l/value	/jointset/knee_l/knee_rotation_l/value	/jointset/ankle_l/ankle_angle_l/value	/jointset/subtalar_l/subtalar_angle_l/value	/jointset/ground_pelvis/pelvis_tilt/speed	/jointset/ground_pelvis/pelvis_tx/speed	/jointset/ground_pelvis/pelvis_ty/speed	/jointset/hip_l/hip_flexion_l/speed	/jointset/hip_l/hip_adduction_l/speed	/jointset/hip_l/hip_rotation_l/speed	/jointset/back/lumbar_extension/speed	/jointset/patellofemoral_l/patellar_flexion_l/speed	/jointset/knee_l/knee_flexion_l/speed	/jointset/knee_l/knee_adduction_l/speed	/jointset/knee_l/knee_rotation_l/speed	/jointset/ankle_l/ankle_angle_l/speed	/jointset/subtalar_l/subtalar_angle_l/speed	/forceset/tau_hip_flexion_l	/forceset/tau_hip_adduction_l	/forceset/tau_hip_rotation_l	/forceset/tau_knee_flexion_l	/forceset/tau_ankle_angle_l	/forceset/tau_subtalar_angle_l	/forceset/tau_lumbar_extension	lambda_cid13_p0	lambda_cid13_p1	lambda_cid13_p2	lambda_cid13_p3	lambda_cid13_p4	lambda_cid13_p5	lambda_cid14_p0	/jointset/ground_pelvis/pelvis_tilt/accel	/jointset/ground_pelvis/pelvis_tx/accel	/jointset/ground_pelvis/pelvis_ty/accel	/jointset/hip_l/hip_flexion_l/accel	/jointset/hip_l/hip_adduction_l/accel	/jointset/hip_l/hip_rotation_l/accel	/jointset/back/lumbar_extension/accel	/jointset/patellofemoral_l/patellar_flexion_l/accel	/jointset/knee_l/knee_flexion_l/accel	/jointset/knee_l/knee_adduction_l/accel	/jointset/knee_l/knee_rotation_l/accel	/jointset/ankle_l/ankle_angle_l/accel	/jointset/subtalar_l/subtalar_angle_l/accel	gamma_cid13_p0	gamma_cid13_p1	gamma_cid13_p2	gamma_cid13_p3	gamma_cid13_p4	gamma_cid13_p5	gamma_cid14_p0
1	-0.5182088574202418	-0.04767561995613875	0.6440656188406576	1.681347612025476	-0.2903593557221326	0.1491414477421169	-0.4363307080260585	1.223381756579191	1.223381756578239	-0.1745214095564674	0.174529592314876	0.2658906246212316	0.01616900707100891	-0.01081025359433309	0.0002073954050505903	-0.003412944798947737	0.01731831290304391	0.0006010911628658157	0.002968905214992184	0.0001460105736745801	0.008256387794025096	0.008256387794019847	1.350007989660361e-05	1.699865304486982e-05	0.002256893252589623	0.001215687824745284	-0.3661731776227138	0.02709682700104178	-0.01843685842813631	-0.2720335820876222	-0.003620881794580774	0.03540381765901437	0.3129621416240512	-45.26363114387856	-7.996155341201817	1.495606071337824	17.17122719391881	-714.6001516154049	-49.12790261385432	-0.438635713205234	1.480569447801606	0.06406946125493761	1.493923361630622	-5.337210688577914	-0.3679954470616632	-1.711891999202969	-0.02662074705422757	-4.806285799966502	-4.806285799966536	-0.05076863720811537	0.01260622990014079	-1.246237122925949	-0.7146124853947624	9.016447324987463e-10	2.09695684032976e-09	-5.757917206408272e-09	-9.536682697109463e-10	1.273568701555707e-09	-1.716371790209443e-09	1.082319991562681e-09
1.01	-0.5182435441666386	-0.04767038436388333	0.6441060692596351	1.681254817711503	-0.2903708962906218	0.1490844314595372	-0.4363298983113463	1.223224352731295	1.223224352730422	-0.1745214371419991	0.1745296215203564	0.2658511284098555	0.01614659741474206	0.003862957511692046	0.0008389667225011546	0.01150098028060889	-0.03586569919312933	-0.002907942639235068	-0.01437191868450496	2.348350290570625e-05	-0.03974130335157346	-0.03974130335157809	-1.974912036176891e-05	-1.193583574820607e-05	-0.01016239215514223	-0.005696824323076863	-0.3660830261668775	0.02711378359795913	-0.01844851119352246	-0.2719768848691312	-0.003577306126721838	0.03542959488384485	0.3128988701821574	-45.24148557066388	-8.014558842700756	1.502345024789781	17.14449020888977	-714.4880563381494	-49.15561747336662	-0.4406957589360105	1.459204758656923	0.06258834277079678	1.489818447973768	-5.307275327832018	-0.3421719279271589	-1.745145906152883	-0.003936027782112511	-4.797131591958976	-4.797131591958927	0.02028484039087851	-0.01076618286585515	-1.240712754599538	-0.679453002167418	-4.100391040398226e-09	-1.129775204827397e-08	2.888792580607496e-08	4.071306436192957e-09	-6.84813829849482e-09	5.098990112036631e-09	-5.318772591715253e-09
1.02	-0.5181317972386337	-0.04765885558329731	0.6442955972027806	1.680630527505017	-0.2904174901133598	0.1488540132737794	-0.4363300873359001	1.222586847807922	1.222586847807157	-0.1745218196391502	0.1745293368020183	0.2656872516434214	0.01605508615245884	0.01847648128385685	0.001466033071170922	0.02640256003447805	-0.08898086559710525	-0.006409559687049904	-0.03171147541717006	-5.373719569634408e-05	-0.08776382730125967	-0.08776382730126256	-5.748224761535634e-05	-4.578610840595495e-05	-0.02261921775898453	-0.01260463337856644	-0.3659928747111417	0.02713074019483511	-0.01846016395932587	-0.2719201876506025	-0.003533730458853264	0.03545537210862493	0.3128355987401554	-45.22921939795429	-8.02950409247905	1.506557904177136	17.16416153612463	-714.4999221145501	-49.14613228586318	-0.4490459015386913	1.46863198102958	0.0631684674987418	1.491454296493121	-5.323441550138432	-0.3665120962044465	-1.711638565836471	-0.01755947262694417	-4.811252360784051	-4.811252360783857	-0.05166542260723188	0.01162307312714972	-1.253745162148107	-0.7136718669282571	-7.695362631583316e-09	-2.34453749523526e-08	6.331734742951054e-08	6.201496435858947e-09	-1.289212342083182e-08	1.406991804339353e-08	-1.190748420393899e-08
1.03	-0.5178741534645827	-0.04764104528243439	0.6446339677010262	1.679475623982903	-0.2904990357108219	0.1484502802627486	-0.4363308766497678	1.221469324335068	1.221469324334839	-0.1745225969503117	0.1745287656644384	0.2653986998993562	0.01589458665431374	0.03304765766203671	0.002098543805468082	0.0412582674259732	-0.1419680980833826	-0.009894405648477895	-0.0490296748187103	-0.000101253295784086	-0.1357115749373315	-0.1357115749373254	-9.43833238576603e-05	-6.23290312503215e-05	-0.03508891513857856	-0.01948625638739662	-0.3654877994738639	0.02716503455300177	-0.01849611531853983	-0.271681541697399	-0.003215706180900156	0.03550611041088458	0.3124871244201845	-45.09402278981992	-8.083405994113885	1.524511436161196	17.04273606289255	-713.9977533617891	-49.17201128140405	-0.4639134155105203	1.450667341707283	0.063671555043062	1.480634312653801	-5.281604183983958	-0.3387108328408067	-1.741108998411087	0.002083130748866369	-4.782138375690304	-4.782138375689081	0.0208293324143396	-0.007397079429380289	-1.243249189456787	-0.6740620520124764	-1.127597642499583e-08	-3.55802724892422e-08	9.774456067142523e-08	8.30214781607351e-09	-1.891490729951867e-08	2.306284154647606e-08	-1.849811029604992e-08
